<?xml version='1.0' encoding='UTF-8'?>
<svg version="1.1" xmlns="http://www.w3.org/2000/svg" xmlns:xlink="http://www.w3.org/1999/xlink"
    width="63" height="29.7">
  <g id="breadboard">
    <g transform="translate(0,2.7)">
      <g><!-- DIP package body -->
        <rect width="63" x="0" y="0" height="24.3" fill="#333333"/><!-- main DIP package body top -->
        <g><!-- 3D package edge/border -->
          <rect width="63" x="0" y="0" height="2.2" style="fill:#3d3d3d" id="top"/>
          <rect width="63" x="0" y="0" height="2.2" id="bottom" transform="matrix(-1,0,0,-1,63,24.3)"/>
          <polygon points="0,0 0,24.3 0.67,22.1 0.67,2.2 " style="fill:#1f1f1f" id="right" transform="matrix(-1,0,0,-1,63,24.3)"/>
          <polygon points="0,0 0,24.3 0.67,22.1 0.67,2.2 " style="fill:#1f1f1f" id="left"/>
        </g>
        <g><!-- 3D inset for notch -->
          <polygon points="0.5,9.5 3.15,12.15 4.6,12.15 4.5,8.16 0.67,8.16" style="fill:#1c1c1c" id="left-upper-rect" transform="matrix(1,0,0,1,0,0)"/><!-- top 3D arc for notch -->
          <polygon points="0.5,9.5 3.15,12.15 4.6,12.15 4.5,8.16 0.67,8.16" style="fill:#383838" id="left-lower-rect" transform="matrix(1,0,0,-1,0,24.3)"/><!-- bottom 3D arc for notch -->
          <path style="fill:#262626" id="notch-bottom" d="m 0.5,14.8 v -5.3 c 3.5,0 3.5,5.3 0,5.3 z"/><!-- bottom of notch in package body -->
          <path style="fill:#333333" id="cover" d="m0.67,2.2v5.96c5.1,0.3 5.1,7.68 0,7.98v0.01H5.18v-13.95z"/>
        </g>
        <circle id="pin0-position" cx="5.85" cy="18.45" style="fill:#212121" r="1.85" transform="matrix(1,0,0,1,0.0,0)"/>
        <g style="fill:#cccccc" transform="matrix(1,0,0,1,0,0)">
          <g style="font-size:6;font-style:normal;font-variant:normal;font-weight:bold;font-stretch:normal;line-height:125%;letter-spacing:0px;word-spacing:0px;fill:#cccccc;fill-opacity:1;stroke:none;font-family:OCRA;" xml:space="preserve">
          <text x="8.8" y="13.4" style="fill:#cccccc">TEMPLATE</text>
          </g>
        </g>
      </g>
    </g>
    <g transform="translate(0,-1022.6622)">
      <g opacity="1"><!-- legs -->
        <rect width="2.7" x="3.146184" y="1049.6566" height="2.69875" style="fill:#999999"/><!-- pin 1 leg -->
        <polygon points="4.68,22.075 6.12,21.413 6.12,20.636 2.52,20.636 2.52,22.075 " style="fill:#8c8c8c" transform="matrix(1.25,0,0,1.25,0.00413261,1022.6835)"/><!-- connector 0 body -->
        <rect width="2.7" x="3.1541328" y="1022.6834" height="3.90625" style="fill:#8c8c8c"/>
        <rect width="2.7" x="3.146296" y="1022.6721" height="2.7" style="fill:#999999"/>
        <polygon points="4.68,1.685 2.52,1.685 2.52,3.125 6.12,3.125 6.12,2.347 " style="fill:#8c8c8c" transform="matrix(1.25,0,0,1.25,0.00413261,1022.6835)"/>
        <rect width="2.6975" x="57.154137" y="1048.4785" height="3.9050002" style="fill:#8c8c8c"/>
        <rect width="2.6975" x="57.156559" y="1049.6646" height="2.69875" style="fill:#999999"/>
        <polygon points="45.72,22.075 47.88,22.075 47.88,20.636 44.28,20.636 44.28,21.413 " style="fill:#8c8c8c" transform="matrix(1.25,0,0,1.25,0.00413261,1022.6835)"/>
        <rect width="2.6975" x="57.154137" y="1022.6834" height="3.90625" style="fill:#8c8c8c"/>
        <rect width="2.6975" x="57.156559" y="1022.6642" height="2.7" style="fill:#999999"/>
        <polygon points="45.72,1.685 44.28,2.347 44.28,3.125 47.88,3.125 47.88,1.685 " style="fill:#8c8c8c" transform="matrix(1.25,0,0,1.25,0.00413261,1022.6835)"/>
        <rect width="2.6975" x="12.154133" y="1048.4785" height="3.9050002" style="fill:#8c8c8c"/>
        <rect width="2.6975" x="12.156689" y="1049.6646" height="2.69875" style="fill:#999999"/>
        <polygon points="13.32,20.636 8.28,20.636 8.28,21.413 9.72,22.075 11.88,22.075 13.32,21.413 " style="fill:#8c8c8c" transform="matrix(1.25,0,0,1.25,0.00413261,1022.6835)"/>
        <rect width="2.6975" x="12.154133" y="1022.6834" height="3.90625" style="fill:#8c8c8c"/>
        <rect width="2.6975" x="12.160462" y="1022.6721" height="2.7" style="fill:#999999"/>
        <polygon points="8.28,3.125 13.32,3.125 13.32,2.347 11.88,1.685 9.72,1.685 8.28,2.347 " style="fill:#8c8c8c" transform="matrix(1.25,0,0,1.25,0.00413261,1022.6835)"/>
        <rect width="2.7" x="48.154137" y="1048.4785" height="3.9050002" style="fill:#8c8c8c"/>
        <rect width="2.7" x="48.15419" y="1049.6646" height="2.69875" style="fill:#999999"/>
        <polygon points="42.12,20.636 37.08,20.636 37.08,21.413 38.52,22.075 40.68,22.075 42.12,21.413 " style="fill:#8c8c8c" transform="matrix(1.25,0,0,1.25,0.00413261,1022.6835)"/>
        <rect width="2.7" x="48.154137" y="1022.6834" height="3.90625" style="fill:#8c8c8c"/>
        <rect width="2.7" x="48.15419" y="1022.6642" height="2.7" style="fill:#999999"/>
        <polygon points="37.08,3.125 42.12,3.125 42.12,2.347 40.68,1.685 38.52,1.685 37.08,2.347 " style="fill:#8c8c8c" transform="matrix(1.25,0,0,1.25,0.00413261,1022.6835)"/>
      </g>
    </g>
  </g>
  <!-- <g fill="#00f000" opacity="0.3" transform="translate(3,-0.5)"> -->
  <!-- half the height -->
  <g fill="none" transform="translate(3,-0.5)">
    <g transform="translate(0,27)">
      <rect width="3" x="0" y="0" height="4" id="connector0"/>
      <rect width="3" x="9" y="0" height="4" id="connector1"/>
      <rect width="3" x="45" y="0" height="4" id="connector5"/>
      <rect width="3" x="54" y="0" height="4" id="connector6"/>
    </g>
    <g transform="translate(0,0)">
      <rect width="3" x="54" y="0" height="4" id="connector7"/>
      <rect width="3" x="45" y="0" height="4" id="connector8"/>
      <rect width="3" x="9" y="0" height="4" id="connector12"/>
      <rect width="3" x="0" y="0" height="4" id="connector13"/>
    </g>
  </g>
</svg>
