<?xml version="1.0" encoding="utf-8"?>
<!-- Generator: Adobe Illustrator 15.1.0, SVG Export Plug-In . SVG Version: 6.00 Build 0)  -->
<!DOCTYPE svg PUBLIC "-//W3C//DTD SVG 1.1//EN" "http://www.w3.org/Graphics/SVG/1.1/DTD/svg11.dtd">
<svg version="1.1"
	 id="Ebene_1" xmlns:rdf="http://www.w3.org/1999/02/22-rdf-syntax-ns#" xmlns:svg="http://www.w3.org/2000/svg" xmlns:inkscape="http://www.inkscape.org/namespaces/inkscape"
	 xmlns="http://www.w3.org/2000/svg" xmlns:xlink="http://www.w3.org/1999/xlink" x="0px" y="0px" width="62.667px"
	 height="76.585px" viewBox="0 0 62.667 76.585" xml:space="preserve">
<g id="schematic">
	<g id="layer1" transform="translate(-201.99844,-375.87344)">

		<rect id="rect5" x="210.715" y="376.359" fill="#FFFFFF" stroke="#000000" stroke-width="0.9" stroke-linecap="round" stroke-linejoin="round" width="45.265" height="76.1"/><!-- part body border and background -->
		<g id="label0" fill="#787878" font-family="'Droid Sans'" font-size="2">
			<g>
				<text transform="matrix(1 0 0 1 205.4213 439.1669)">7</text>
			</g>
			<g>
				<text transform="matrix(1 0 0 1 205.4213 431.9667)">6-</text>
			</g>
			<g>
				<text transform="matrix(1 0 0 1 205.4213 395.9657)">2+</text>
			</g>
			<g>
				<text transform="matrix(1 0 0 1 205.4213 388.7655)">1</text>
			</g>
			<g>
				<text transform="matrix(1 0 0 1 259.4726 439.1669)">8</text>
			</g>
			<g>
				<text transform="matrix(1 0 0 1 259.4726 431.9667)">9</text>
			</g>
			<g>
				<text transform="matrix(1 0 0 1 259.4726 395.9657)">13</text>
			</g>
			<g>
				<text transform="matrix(1 0 0 1 259.4726 388.7655)">14</text>
			</g>
		</g>
		<g id="g3256" transform="matrix(1.2500001,0,0,1.2500001,201.9491,375.78003)">
			<path id="path3892" fill="none" stroke="#000000" stroke-width="0.4" stroke-linecap="round" stroke-linejoin="round" d="
				M6.918,46.575h12.634v-4.979h0.098c1.122,0,2.032-0.91,2.032-2.032c0-1.123-0.91-2.031-2.032-2.031
				c1.122,0,2.032-0.91,2.032-2.032c0-1.122-0.91-2.031-2.032-2.031c1.122,0,2.032-0.909,2.032-2.031
				c0-1.122-0.91-2.032-2.032-2.032c1.122,0,2.032-0.91,2.032-2.032c0-1.122-0.91-2.032-2.032-2.032c1.122,0,2.032-0.91,2.032-2.032
				c0-1.122-0.91-2.032-2.032-2.032h-0.098v-3.521H6.918"/>
		</g><!-- coil graphic -->

		<text id="label" transform="matrix(1 0 0 1 225.3046 385.952)" font-family="'Droid Sans'" font-size="5.5">relay</text>
	</g>
	<g fill="none" stroke="#787878" stroke-width="0.7" stroke-linecap="round" stroke-linejoin="round"  transform="translate(0,0)">
		<line x1="54" y1="65.3" x2="62.7" y2="65.3"/>
		<line x1="54" y1="58.1" x2="62.7" y2="58.1"/>
		<line x1="54" y1="22.1" x2="62.7" y2="22.1"/>
		<line x1="54" y1="14.9" x2="62.7" y2="14.9"/>
		<!-- <line x1="0.4" y1="65.3" x2="8.8" y2="65.3"/> -->
		<line x1="0" y1="65.3" x2="8.7" y2="65.3"/>
		<line x1="0" y1="58.1" x2="8.7" y2="58.1"/>
		<line x1="0" y1="22.1" x2="8.7" y2="22.1"/>
		<line x1="0" y1="14.9" x2="8.7" y2="14.9"/>
	</g>
	<!-- <line x1="0" y1="64.787" x2="6.666" y2="65.78" fill="none" stroke="#f00000" stroke-width="0.1"/> -->
	<!-- <line x1="0" y1="64.787" x2="0.232" y2="65.78" fill="none" stroke="#00f000" stroke-width="0.1"/> -->
	<rect id="connector6" x="0" y="64.787" fill="none" width="6.666" height="0.993"/>
	<rect id="connector6terminal" x="0" y="64.787" fill="none" width="0.232" height="0.993"/>
	<rect id="connector7" x="55.813" y="64.79" fill="none" width="6.854" height="0.994"/>
	<rect id="connector7terminal" x="62.583" y="64.79" fill="none" width="0.084" height="0.994"/>
	<rect id="connector8" x="54.874" y="57.684" fill="none" width="7.752" height="0.806"/>
	<rect id="connector8terminal" x="62.324" y="57.684" fill="none" width="0.303" height="0.806"/>
	<rect id="connector12" x="56.378" y="21.589" fill="none" width="6.289" height="0.994"/>
	<rect id="connector12terminal" x="62.474" y="21.589" fill="none" width="0.193" height="0.994"/>
	<rect id="connector13" x="56.001" y="14.388" fill="none" width="6.666" height="0.994"/>
	<rect id="connector13terminal" x="62.435" y="14.388" fill="none" width="0.232" height="0.994"/>
	<rect id="connector0" x="0" y="14.438" fill="none" width="6.371" height="0.888"/>
	<rect id="connector0terminal" x="0" y="14.438" fill="none" width="0.276" height="0.888"/>
	<rect id="connector1" x="0" y="21.585" fill="none" width="5.721" height="0.994"/>
	<rect id="connector1terminal" x="0" y="21.585" fill="none" width="0.303" height="0.994"/>
	<rect id="connector5" x="0" y="57.492" fill="none" width="5.91" height="0.994"/>
	<rect id="connector5terminal" x="0" y="57.492" fill="none" width="0.153" height="0.994"/>
</g>
</svg>
