<?xml version="1.0" encoding="utf-8"?>
<svg version="1.2" baseProfile="tiny" xmlns="http://www.w3.org/2000/svg" xmlns:xlink="http://www.w3.org/1999/xlink"
	 x="0" y="0" width="0.8in" height="0.833in"
	 viewBox="0 0 57.6 60" xml:space="preserve">
<!-- help group can (should) be removed from final version before building part -->
<g id="help">
	<rect x="0" y="0" fill="#F2F2F2" width="62.667" height="76.585" id="viewBox_background"/>
	<rect x="0" y="0" fill="none" stroke="#EC1C24" stroke-width="0.6" width="7.2" height="7.2" id="scale_block"/>
	<text transform="matrix(1 0 0 1.2 0.8 4.3)" fill="#BE1E2D" font-family="'Droid Sans'" font-size="2">0.1 in</text>
</g>
<g id="schematic" xmlns:xml="http://www.w3.org/XML/1998/namespace">
	<!-- <rect x="0" y="0" fill="#F2F2F2" width="62.667" height="76.585"/> --><!-- uncomment previous to add background after export to svg -->
	<rect x="7.2" y="0" fill="#FFFFFF" stroke="none" width="43.2" height="60"/>
	<g transform="matrix(1,0,0,1,0,5)">
		<path fill="none" stroke="#000000" stroke-width="0.7" stroke-linecap="round" stroke-linejoin="round" d="M7.2,7.2
			h8v5.5
			c3.5,0,3.5,5,0,5
			c3.5,0,3.5,5,0,5
			c3.5,0,3.5,5,0,5
			c3.5,0,3.5,5,0,5
			c3.5,0,3.5,5,0,5
			v5.5h-8"/>
	</g>
	<text transform="matrix(1 0 0 1 22 5)" font-family="'Droid Sans'" font-size="5.5">relay</text>

	<g fill="#787878" font-family="'Droid Sans'" font-size="2" transform="translate(3,4)">
		<g transform="translate(0,0)">
			<text transform="matrix(1 0 0 1 0  0  )">1</text>
			<text transform="matrix(1 0 0 1 0  7.2)">2</text>
			<text transform="matrix(1 0 0 1 0 43.2)">6</text>
			<text transform="matrix(1 0 0 1 0 50.4)">7</text>
		</g>
		<g transform="translate(50.4,0)">
			<text transform="matrix(1 0 0 1 0 50.4)">8</text>
			<text transform="matrix(1 0 0 1 0 43.2)">9</text>
			<text transform="matrix(1 0 0 1 0  7.2)">13</text>
			<text transform="matrix(1 0 0 1 0  0  )">14</text>
		</g>
	</g>
	<g fill="none" stroke="#787878" stroke-width="0.7" stroke-linecap="round" stroke-linejoin="round" transform="translate(0.3,5)">
		<g transform="translate(0,0)">
			<line x1="0"  y1="0"   x2="6.6"  y2="0"   id="connector0"/>
			<line x1="0"  y1="7.2" x2="6.6"  y2="7.2" id="connector1"/>
			<line x1="0" y1="43.2" x2="6.6" y2="43.2" id="connector5"/>
			<line x1="0" y1="50.4" x2="6.6" y2="50.4" id="connector6"/>
		</g>
		<g transform="translate(50.4,0)">
			<line x1="0" y1="50.4" x2="6.6" y2="50.4" id="connector7"/>
			<line x1="0" y1="43.2" x2="6.6" y2="43.2" id="connector8"/>
			<line x1="0"  y1="7.2" x2="6.6"  y2="7.2" id="connector12"/>
			<line x1="0"  y1="0"   x2="6.6"  y2="0"   id="connector13"/>
		</g>
	</g>
	<!-- fill="#f00000"  -->
	<g fill="none" transform="translate(-0.5,4.5)">
		<g transform="translate(0,0)">
			<rect id="connector0terminal" x="0"  y="0"   width="1" height="1"/>
			<rect id="connector1terminal" x="0"  y="7.2" width="1" height="1"/>
			<rect id="connector5terminal" x="0" y="43.2" width="1" height="1"/>
			<rect id="connector6terminal" x="0" y="50.4" width="1" height="1"/>
		</g>
		<g transform="translate(57.6,0)">
			<rect id="connector7terminal" x="0" y="50.4" width="1" height="1"/>
			<rect id="connector8terminal" x="0" y="43.2" width="1" height="1"/>
			<rect id="connector12terminal" x="0" y="7.2" width="1" height="1"/>
			<rect id="connector13terminal" x="0" y="0"   width="1" height="1"/>
		</g>
	</g>
</g>
</svg>
