<?xml version='1.0' encoding='UTF-8'?>
<svg version="1.2" baseProfile="tiny" xmlns="http://www.w3.org/2000/svg" xmlns:xlink="http://www.w3.org/1999/xlink"
  x="0px" y="0px" width="0.7in" height="0.33in" viewBox="0 0 63 29.7" xml:space="preserve">
  <g transform="translate(0,2.7)">
    <rect width="63" x="0" y="0" height="24.3" fill="#303030"/><!-- main DIP package body top -->
    <rect width="63" x="0" y="0" height="2.2" style="fill:#3d3d3d"/>
    <rect width="63" x="0" y="0" height="2.2" transform="matrix(-1,0,0,-1,63,24.3)"/>
    <polygon points="0,0 0,24.3 0.67,22.1 0.67,2.2 " style="fill:#141414" transform="matrix(-1,0,0,-1,63,24.3)"/>
    <polygon points="0,0 0,24.3 0.67,22.1 0.67,2.2 " style="fill:#1f1f1f"/>
    <polygon points="0.5,9.5 3.15,12.15 4.6,12.15 4.5,8.16 0.67,8.16" style="fill:#1c1c1c" transform="matrix(1,0,0,1,0,0)"/><!-- top 3D arc for notch -->
    <polygon points="0.5,9.5 3.15,12.15 4.6,12.15 4.5,8.16 0.67,8.16" style="fill:#383838" transform="matrix(1,0,0,-1,0,24.3)"/><!-- bottom 3D arc for notch -->
    <path style="fill:#262626" d="m 0.5,14.8 v -5.3 c 3.5,0 3.5,5.3 0,5.3 z"/><!-- bottom of notch in package body -->
    <path style="fill:#303030" d="m0.67,2.2v5.96c5.1,0.3 5.1,7.68 0,7.98v0.01H5.18v-13.95z"/>
    <circle cx="5.85" cy="18.45" style="fill:#212121" r="1.85"/>
    <g style="font-size:6;font-style:normal;font-variant:normal;font-weight:bold;font-stretch:normal;line-height:125%;letter-spacing:0px;word-spacing:0px;fill:#cccccc;fill-opacity:1;stroke:none;font-family:OCRA;" xml:space="preserve" transform="matrix(1,0,0,1,0,0)">
      <text x="8.5" y="14.1">TEMPLATE</text>
    </g>
  </g>
  <g transform="translate(3.15,0)" style="fill:#8c8c8c">
    <g transform="matrix(1,0,0,-1,0,29.7)">
      <polygon points="0,0 0,3.875 4.5,3.875 4.5,2.95 2.7,2.125 2.7,0"/>
      <polygon points="0,0 0,2.125 -1.8,2.95 -1.8,3.875 4.5,3.875 4.5,2.95 2.7,2.125 2.7,0" transform="translate(9,0)"/>
      <polygon points="0,0 0,2.125 -1.8,2.95 -1.8,3.875 4.5,3.875 4.5,2.95 2.7,2.125 2.7,0" transform="translate(45,0)"/>
      <polygon points="0,0 0,3.875 4.5,3.875 4.5,2.95 2.7,2.125 2.7,0" transform="matrix(-1,0,0,1,56.7,0)"/>
    </g>
    <polygon points="0,0 0,3.875 4.5,3.875 4.5,2.95 2.7,2.125 2.7,0" transform="matrix(-1,0,0,1,56.7,0)"/>
    <polygon points="0,0 0,2.125 -1.8,2.95 -1.8,3.875 4.5,3.875 4.5,2.95 2.7,2.125 2.7,0" transform="translate(45,0)"/>
    <polygon points="0,0 0,2.125 -1.8,2.95 -1.8,3.875 4.5,3.875 4.5,2.95 2.7,2.125 2.7,0" transform="translate(9,0)"/>
    <polygon points="0,0 0,3.875 4.5,3.875 4.5,2.95 2.7,2.125 2.7,0"/>
  </g>
</svg>
