<?xml version="1.0" encoding="utf-8"?>
<!-- Generator: Adobe Illustrator 15.1.0, SVG Export Plug-In . SVG Version: 6.00 Build 0)  -->
<!DOCTYPE svg PUBLIC "-//W3C//DTD SVG 1.1//EN" "http://www.w3.org/Graphics/SVG/1.1/DTD/svg11.dtd">
<svg version="1.2" baseProfile="tiny" id="Layer_1" xmlns="http://www.w3.org/2000/svg" xmlns:xlink="http://www.w3.org/1999/xlink"
	 x="0px" y="0px" width="62.667px" height="76.585px"
	 viewBox="0 0 62.667 76.585" xml:space="preserve">
<!-- help group can (should) be removed from final version before building part -->
<g id="help">
	<rect x="0" y="0" fill="#F2F2F2" width="62.667" height="76.585" id="viewBox_background"/>
	<rect x="0" y="0" fill="none" stroke="#EC1C24" stroke-width="0.6" width="7.2" height="7.2" id="scale_block"/>
	<text transform="matrix(1 0 0 1.2 0.8 4.3)" fill="#BE1E2D" font-family="'Droid Sans'" font-size="2">0.1 in</text>
</g>
<g id="schematic" xmlns:xml="http://www.w3.org/XML/1998/namespace">
	<!-- <rect x="0" y="0" fill="#F2F2F2" width="62.667" height="76.585"/> --><!-- uncomment previous to add background to exported svg -->
	<g transform="translate(0,0)">

		<rect id="rect5" x="8.7" y="0.45" fill="#FFFFFF" stroke="#000000" stroke-width="0.9" stroke-linecap="round" stroke-linejoin="round" width="45.265" height="76.1"/><!-- part body border and background -->
		<g id="label0" fill="#787878" font-family="'Droid Sans'" font-size="2" transform="translate(3,6.2 )">
			<text transform="matrix(1 0 0 1 0     7.2)">1</text>
			<text transform="matrix(1 0 0 1 0    14.4)">2</text>
			<text transform="matrix(1 0 0 1 0    50.4)">6</text>
			<text transform="matrix(1 0 0 1 0    57.6)">7</text>
			<text transform="matrix(1 0 0 1 53.5 57.6)">8</text>
			<text transform="matrix(1 0 0 1 53.5 50.4)">9</text>
			<text transform="matrix(1 0 0 1 53.5 14.2)">13</text>
			<text transform="matrix(1 0 0 1 53.5  7.2)">14</text>
		</g>
		<g id="g3256" transform="matrix(1,0,0,1,1.8,7.92)">
			<path id="path3892" fill="none" stroke="#000000" stroke-width="0.4" stroke-linecap="round" stroke-linejoin="round" d="
				M7.2,14.4h8v5.5
				c3.5,0,3.5,5,0,5
				c3.5,0,3.5,5,0,5
				c3.5,0,3.5,5,0,5
				c3.5,0,3.5,5,0,5
				c3.5,0,3.5,5,0,5
				v5.5h-8"/>
		</g><!-- coil graphic -->

		<text id="label" transform="matrix(1 0 0 1 23.3 10)" font-family="'Droid Sans'" font-size="5.5">relay</text>
	</g>
	<g fill="none" stroke="#787878" stroke-width="0.7" stroke-linecap="round" stroke-linejoin="round" transform="translate(0.4,7.9)"><!-- opacity="0.5" -->
		<line x1="0"     y1="7.2" x2="8.4"   y2="7.2" id="connector0"/>
		<line x1="0"    y1="14.4" x2="8.4"  y2="14.4" id="connector1"/>
		<line x1="0"    y1="50.4" x2="8.4"  y2="50.4" id="connector5"/>
		<line x1="0"    y1="57.6" x2="8.4"  y2="57.6" id="connector6"/>
		<line x1="53.5" y1="57.6" x2="61.9" y2="57.6" id="connector7"/>
		<line x1="53.5" y1="50.4" x2="61.9" y2="50.4" id="connector8"/>
		<line x1="53.5" y1="14.4" x2="61.9" y2="14.4" id="connector12"/>
		<line x1="53.5"  y1="7.2" x2="61.9"  y2="7.2" id="connector13"/>
	</g>
	<!-- <g stroke="#f00000" stroke-width="0.1" > -->
	<rect id="connector0terminal" x="-0.5" y="14.4" fill="none" width="1" height="1"/>
	<rect id="connector1terminal" x="-0.5" y="21.6" fill="none" width="1" height="1"/>
	<rect id="connector5terminal" x="-0.5" y="57.6" fill="none" width="1" height="1"/>
	<rect id="connector6terminal" x="-0.5" y="64.8" fill="none" width="1" height="1"/>
	<rect id="connector7terminal" x="62.2" y="64.8" fill="none" width="1" height="1"/>
	<rect id="connector8terminal" x="62.2" y="57.6" fill="none" width="1" height="1"/>
	<rect id="connector12terminal" x="62.2" y="21.6" fill="none" width="1" height="1"/>
	<rect id="connector13terminal" x="62.2" y="14.4" fill="none" width="1" height="1"/>
	<!-- </g> -->
</g>
</svg>
