<?xml version='1.0' encoding='UTF-8'?>
<svg version="1.1" xmlns="http://www.w3.org/2000/svg" xmlns:xlink="http://www.w3.org/1999/xlink"
  x="0" y="0" width="0.7in" height="0.33in"
  viewBox="0 0 63 29.7" xml:space="preserve">
  <g id="breadboard">
    <!-- <defs>
      <polygon id="corner-leg" points="-1.35,-0.575 -1.35,1.225 3.15,1.225 3.15,0.25 1.35,-0.575"/>
      <polygon id="mid-leg" points="-1.35,-0.575 -3.15,0.25 -3.15,1.225 3.15,1.225 3.15,0.25 1.35,-0.575"/>
      <use x="0" y="0" xlink:href="#corner-leg"/>
      <use x="9" y="0" xlink:href="#mid-leg"/>
      <use x="45" y="0" xlink:href="#mid-leg"/>
      <use x="54" y="0" xlink:href="#corner-leg" tranform="matrix(-1,0,0,1,0,0)"/>
    </defs> -->
    <g transform="translate(0,2.7)">
      <g><!-- DIP package body -->
        <rect width="63" x="0" y="0" height="24.3" fill="#333333"/><!-- main DIP package body top -->
        <g><!-- 3D package edge/border -->
          <rect width="63" x="0" y="0" height="2.2" style="fill:#3d3d3d" id="top"/>
          <rect width="63" x="0" y="0" height="2.2" id="bottom" transform="matrix(-1,0,0,-1,63,24.3)"/>
          <polygon points="0,0 0,24.3 0.67,22.1 0.67,2.2 " style="fill:#1f1f1f" id="right" transform="matrix(-1,0,0,-1,63,24.3)"/>
          <polygon points="0,0 0,24.3 0.67,22.1 0.67,2.2 " style="fill:#1f1f1f" id="left"/>
        </g>
        <g><!-- 3D inset for notch -->
          <polygon points="0.5,9.5 3.15,12.15 4.6,12.15 4.5,8.16 0.67,8.16" style="fill:#1c1c1c" id="left-upper-rect" transform="matrix(1,0,0,1,0,0)"/><!-- top 3D arc for notch -->
          <polygon points="0.5,9.5 3.15,12.15 4.6,12.15 4.5,8.16 0.67,8.16" style="fill:#383838" id="left-lower-rect" transform="matrix(1,0,0,-1,0,24.3)"/><!-- bottom 3D arc for notch -->
          <path style="fill:#262626" id="notch-bottom" d="m 0.5,14.8 v -5.3 c 3.5,0 3.5,5.3 0,5.3 z"/><!-- bottom of notch in package body -->
          <path style="fill:#333333" id="cover" d="m0.67,2.2v5.96c5.1,0.3 5.1,7.68 0,7.98v0.01H5.18v-13.95z"/>
        </g>
        <circle id="pin0-position" cx="5.85" cy="18.45" style="fill:#212121" r="1.85" transform="matrix(1,0,0,1,0.0,0)"/>
        <g style="fill:#cccccc" transform="matrix(1,0,0,1,0,0)">
          <g style="font-size:6;font-style:normal;font-variant:normal;font-weight:bold;font-stretch:normal;line-height:125%;letter-spacing:0px;word-spacing:0px;fill:#cccccc;fill-opacity:1;stroke:none;font-family:OCRA;" xml:space="preserve">
          <text x="8.8" y="13.4" style="fill:#cccccc">TEMPLATE</text>
          </g>
        </g>
      </g>
    </g>
    <g transform="translate(4.5,1.35)">
      <!-- legs: origin is center of the top left pin on the 0.1 inch grid -->
      <g  style="fill:#999999" transform="translate(-1.35,-1.35)">
        <!-- origin is top left of the top left pin connection rectangle -->
        <!-- <g transform="translate(0,27)"> -->
        <g transform="translate(0,27)">
          <!-- origin is the bottom row of pins -->
          <rect width="2.7" x="0" y="0" height="2.7"/>
          <rect width="2.7" x="9" y="0" height="2.7"/>
          <rect width="2.7" x="45" y="0" height="2.7"/>
          <rect width="2.7" x="54" y="0" height="2.7"/>
        </g>
        <rect width="2.7" x="54" y="0" height="2.7"/>
        <rect width="2.7" x="45" y="0" height="2.7"/>
        <rect width="2.7" x="9" y="0" height="2.7"/>
        <rect width="2.7" x="0" y="0" height="2.7"/>
        <g style="fill:#8c8c8c">
          <g transform="matrix(1,0,0,-1,0,29.7)">
            <!-- 29.7 == 27 + 2.7; 2.7 is the pin connection rectangle height -->
            <polygon points="0,2.08 0,3.875 4.5,3.925 4.5,2.95 2.7,2.125"/>
            <polygon points="0,2.08 -1.8,2.95 -1.8,3.875 4.5,3.925 4.5,2.95 2.7,2.125" transform="translate(9,0)"/>
            <polygon points="0,2.08 -1.8,2.95 -1.8,3.875 4.5,3.925 4.5,2.95 2.7,2.125" transform="translate(45,0)"/>
            <polygon points="0,2.08 0,3.875 4.5,3.925 4.5,2.95 2.7,2.125" transform="matrix(-1,0,0,1,56.7,0)"/>
            <!-- 56.7 == 54 + + 2.7; 2.7 is the pin connection rectangle width -->
          </g>
          <polygon points="0,2.08 0,3.875 4.5,3.925 4.5,2.95 2.7,2.125" transform="matrix(-1,0,0,1,56.7,0)"/>
          <polygon points="0,2.08 -1.8,2.95 -1.8,3.875 4.5,3.925 4.5,2.95 2.7,2.125" transform="translate(45,0)"/>
          <polygon points="0,2.08 -1.8,2.95 -1.8,3.875 4.5,3.925 4.5,2.95 2.7,2.125" transform="translate(9,0)"/>
          <polygon points="0,2.08 0,3.875 4.5,3.925 4.5,2.95 2.7,2.125"/>
        </g>
      </g>
    </g>
    </g>
    <g fill="none" transform="translate(3,-0.5)">
      <!-- offset from center by half the dimensions, extends outside viewBox -->
      <g transform="translate(0,27)">
        <rect width="3" x="0" y="0" height="4" id="connector0"/>
        <rect width="3" x="9" y="0" height="4" id="connector1"/>
        <rect width="3" x="45" y="0" height="4" id="connector5"/>
        <rect width="3" x="54" y="0" height="4" id="connector6"/>
      </g>
      <g transform="translate(0,0)">
        <rect width="3" x="54" y="0" height="4" id="connector7"/>
        <rect width="3" x="45" y="0" height="4" id="connector8"/>
        <rect width="3" x="9" y="0" height="4" id="connector12"/>
        <rect width="3" x="0" y="0" height="4" id="connector13"/>
      </g>
  </g>
</svg>
