<?xml version='1.0' encoding='UTF-8' standalone='no'?>
<!-- Created with Fritzing (http://www.fritzing.org/) -->
<svg xmlns:svg='http://www.w3.org/2000/svg' xmlns='http://www.w3.org/2000/svg' version='1.2' baseProfile='tiny' x='0in' y='0in' width='1.38149in' height='1.21924in' viewBox='0 0 99.467 87.785' >
<g partID='854502920'><g transform='translate(0,11.2)' ><g id="schematic">
<g transform="matrix(1, 0, 0, 1, -201.998, -375.873)">
<g id="layer1">
<rect stroke-linejoin="round" width="45.265" stroke-width="0.9" stroke="#000000" x="210.715" y="376.359" height="76.1" id="rect5" fill="#FFFFFF" stroke-linecap="round"/>
<g enable-background="new    " id="label0">
<g>
<g transform="matrix(1, 0, 0, 1, 205.421, 439.167)">
<text font-size="2" fill="#787878" font-family="'Droid Sans'">7</text>
</g>
</g>
<g>
<g transform="matrix(1, 0, 0, 1, 205.421, 431.967)">
<text font-size="2" fill="#787878" font-family="'Droid Sans'">6-</text>
</g>
</g>
<g>
<g transform="matrix(1, 0, 0, 1, 205.421, 395.966)">
<text font-size="2" fill="#787878" font-family="'Droid Sans'">2+</text>
</g>
</g>
<g>
<g transform="matrix(1, 0, 0, 1, 205.421, 388.765)">
<text font-size="2" fill="#787878" font-family="'Droid Sans'">1</text>
</g>
</g>
</g>
<g enable-background="new    " id="label0_1_">
<g>
<g transform="matrix(1, 0, 0, 1, 259.473, 439.167)">
<text font-size="2" fill="#787878" font-family="'Droid Sans'">8</text>
</g>
</g>
<g>
<g transform="matrix(1, 0, 0, 1, 259.473, 431.967)">
<text font-size="2" fill="#787878" font-family="'Droid Sans'">9</text>
</g>
</g>
<g>
<g transform="matrix(1, 0, 0, 1, 259.473, 395.966)">
<text font-size="2" fill="#787878" font-family="'Droid Sans'">13</text>
</g>
</g>
<g>
<g transform="matrix(1, 0, 0, 1, 259.473, 388.765)">
<text font-size="2" fill="#787878" font-family="'Droid Sans'">14</text>
</g>
</g>
</g>
<g transform="matrix(1.25, 0, 0, 1.25, 201.949, 375.78)">
<g id="g3256">
<path stroke-linejoin="round" stroke-width="0.4" d="M6.918,46.575l12.634,0l0,-4.979l0.098,0c1.122,0,2.032,-0.91,2.032,-2.032c0,-1.123,-0.91,-2.031,-2.032,-2.031c1.122,0,2.032,-0.91,2.032,-2.032c0,-1.122,-0.91,-2.031,-2.032,-2.031c1.122,0,2.032,-0.909,2.032,-2.031c0,-1.122,-0.91,-2.032,-2.032,-2.032c1.122,0,2.032,-0.91,2.032,-2.032c0,-1.122,-0.91,-2.032,-2.032,-2.032c1.122,0,2.032,-0.91,2.032,-2.032c0,-1.122,-0.91,-2.032,-2.032,-2.032l-0.098,0l0,-3.521L6.918,17.758" stroke="#000000" id="path3892" fill="none" stroke-linecap="round"/>
<path stroke-linejoin="round" stroke-width="0.5783" d="M13.004,17.773c0,0.095,-0.077,0.173,-0.173,0.173c-0.096,0,-0.173,-0.077,-0.173,-0.173l0,0c0,-0.096,0.077,-0.173,0.173,-0.173C12.927,17.6,13.004,17.677,13.004,17.773L13.004,17.773z" stroke="#000000" id="path3896" fill="none" stroke-linecap="square" stroke-miterlimit="1"/>
<path stroke-linejoin="round" stroke-width="0.5783" d="M13.062,46.557c0,0.095,-0.077,0.173,-0.173,0.173c-0.095,0,-0.173,-0.077,-0.173,-0.173l0,0c0,-0.095,0.077,-0.173,0.173,-0.173C12.984,46.384,13.062,46.462,13.062,46.557L13.062,46.557z" stroke="#000000" id="path3896-2" fill="none" stroke-linecap="square" stroke-miterlimit="1"/>
<path stroke-linejoin="round" stroke-width="0.4" d="M12.843,29.681l1.752,3.596l-3.504,0C11.091,33.277,12.836,29.681,12.843,29.681z" stroke="#000000" id="rect3916" fill="none" stroke-linecap="square" stroke-miterlimit="1"/>
<path stroke-linejoin="round" stroke-width="0.4" d="M12.831,29.861L12.831,17.765" stroke="#000000" id="path3921" fill="none"/>
<path stroke-linejoin="round" stroke-width="0.4" d="M10.842,29.405l3.913,0" stroke="#000000" id="path3928" fill="none"/>
</g>
</g>
<path stroke-linejoin="round" stroke-width="0.4" d="M231.605,402.046l0,25.938" stroke="#000000" stroke-dasharray="3.4697,0.5783" id="path3934" fill="none"/>
<path stroke-linejoin="round" stroke-width="0.4" d="M255.986,434.005l-24.38,0l0,-6.081" stroke="#000000" id="path3936" fill="none"/>
<g transform="matrix(1.25, 0, 0, 1.25, 201.949, 375.78)">
<g id="g3270">
<path stroke-linejoin="round" stroke-width="0.4" d="M7.345,52.375l35.539,0" stroke="#000000" id="path3064" fill="none"/>
<path stroke-linejoin="round" stroke-width="0.4" d="M7.345,12l35.539,0" stroke="#000000" id="path3066" fill="none"/>
<path stroke-linejoin="round" stroke-width="0.4" d="M34.546,36.028l0,16.598" stroke="#000000" id="path3948" fill="none"/>
<path stroke-linejoin="round" stroke-width="0.4" d="M34.527,12.092l0,17.581l2.755,6.778" stroke="#000000" id="path3952" fill="none"/>
<path stroke-linejoin="round" stroke-width="0.5783" d="M34.703,52.335c0,0.095,-0.077,0.173,-0.173,0.173c-0.095,0,-0.173,-0.077,-0.173,-0.173l0,0c0,-0.095,0.077,-0.173,0.173,-0.173C34.625,52.162,34.703,52.239,34.703,52.335L34.703,52.335z" stroke="#000000" id="path3896-2-1" fill="none" stroke-linecap="square" stroke-miterlimit="1"/>
<path stroke-linejoin="round" stroke-width="0.5783" d="M34.686,12.036c0,0.096,-0.077,0.173,-0.173,0.173c-0.095,0,-0.173,-0.077,-0.173,-0.173l0,0c0,-0.095,0.077,-0.173,0.173,-0.173C34.609,11.863,34.686,11.94,34.686,12.036L34.686,12.036z" stroke="#000000" id="path3896-2-6" fill="none" stroke-linecap="square" stroke-miterlimit="1"/>
</g>
</g>
<path stroke-linejoin="round" stroke-width="0.4" d="M218.062,417.334l0,16.529" stroke="#000000" id="path3919" fill="none"/>
<g transform="matrix(1, 0, 0, 1, 225.305, 385.952)">
<text id="label" font-size="5.5" font-family="'Droid Sans'">D31A*</text>
</g>
<g>
<g>
<line stroke-linejoin="round" x1="255.98" x2="264.666" stroke-width="0.7" stroke="#787878" fill="none" stroke-linecap="round" y1="441.16" y2="441.16"/>
</g>
<g>
<line stroke-linejoin="round" x1="255.98" x2="264.666" stroke-width="0.7" stroke="#787878" fill="none" stroke-linecap="round" y1="433.96" y2="433.96"/>
</g>
<g>
<line stroke-linejoin="round" x1="255.98" x2="264.666" stroke-width="0.7" stroke="#787878" fill="none" stroke-linecap="round" y1="397.959" y2="397.959"/>
</g>
<g>
<line stroke-linejoin="round" x1="255.98" x2="264.666" stroke-width="0.7" stroke="#787878" fill="none" stroke-linecap="round" y1="390.759" y2="390.759"/>
</g>
</g>
<g>
<g>
<line stroke-linejoin="round" x1="201.998" x2="210.684" stroke-width="0.7" stroke="#787878" fill="none" stroke-linecap="round" y1="441.156" y2="441.156"/>
</g>
<g>
<line stroke-linejoin="round" x1="201.998" x2="210.684" stroke-width="0.7" stroke="#787878" fill="none" stroke-linecap="round" y1="433.956" y2="433.956"/>
</g>
<g>
<line stroke-linejoin="round" x1="201.998" x2="210.684" stroke-width="0.7" stroke="#787878" fill="none" stroke-linecap="round" y1="397.955" y2="397.955"/>
</g>
<g>
<line stroke-linejoin="round" x1="201.998" x2="210.684" stroke-width="0.7" stroke="#787878" fill="none" stroke-linecap="round" y1="390.755" y2="390.755"/>
</g>
</g>
</g>
</g>
<rect width="6.666" x="0" y="64.787" height="0.993" id="connector6" fill="none"/>
<g width="0.232" x="0" y="64.787" height="0.993" id="connector6terminal" fill="none"/>
<rect width="6.854" x="55.813" y="64.79" height="0.994" id="connector7" fill="none"/>
<g width="0.084" x="62.583" y="64.79" height="0.994" id="connector7terminal" fill="none"/>
<rect width="7.752" x="54.874" y="57.684" height="0.806" id="connector8" fill="none"/>
<g width="0.303" x="62.324" y="57.684" height="0.806" id="connector8terminal" fill="none"/>
<rect width="6.289" x="56.378" y="21.589" height="0.994" id="connector12" fill="none"/>
<g width="0.193" x="62.474" y="21.589" height="0.994" id="connector12terminal" fill="none"/>
<rect width="6.666" x="56.001" y="14.388" height="0.994" id="connector13" fill="none"/>
<g width="0.232" x="62.435" y="14.388" height="0.994" id="connector13terminal" fill="none"/>
<rect width="6.371" x="0" y="14.438" height="0.888" id="connector0" fill="none"/>
<g width="0.276" x="0" y="14.438" height="0.888" id="connector0terminal" fill="none"/>
<rect width="5.721" x="0" y="21.585" height="0.994" id="connector1" fill="none"/>
<g width="0.303" x="0" y="21.585" height="0.994" id="connector1terminal" fill="none"/>
<rect width="5.91" x="0" y="57.492" height="0.994" id="connector5" fill="none"/>
<g width="0.153" x="0" y="57.492" height="0.994" id="connector5terminal" fill="none"/>
</g>
</g></g><g partID='854502920' id='partLabel'><g transform='translate(62.667,0)' ><g font-size='5' font-style='normal' font-weight='normal' fill='#000000' font-family="'DroidSans'" id='schematicLabel' fill-opacity='1' stroke='none' ><text x='0' y='3.75'>DIP-Relay1</text><text x='0' y='8.75'>D31A*</text></g></g></g></svg>